<?xml version="1.0" encoding="UTF-8" ?>
<svg viewBox="200 100 48 48" version="1.1" xmlns="http://www.w3.org/2000/svg">
  <path fill="#6366f1" opacity="1.00" d=" M 200.01 147.99 C 208.00 132.00 215.99 116.01 224.00 100.02 C 232.01 116.01 240.00 132.00 247.99 147.99 C 244.00 148.01 240.00 148.00 236.01 148.00 C 231.99 140.01 228.02 132.00 224.00 124.02 C 219.98 132.00 216.01 140.01 211.99 148.00 C 208.00 148.00 204.00 148.00 200.01 147.99 M 221.41 111.33 C 218.85 112.96 218.86 117.05 221.42 118.67 C 224.15 120.95 228.71 118.43 228.52 114.97 C 228.66 111.53 224.12 109.06 221.41 111.33 Z" />
  <path fill="#ffffff" opacity="1.00" d=" M 221.41 111.33 C 224.12 109.06 228.66 111.53 228.52 114.97 C 228.71 118.43 224.15 120.95 221.42 118.67 C 218.86 117.05 218.85 112.96 221.41 111.33 Z" />
</svg>
