<?xml version="1.0" encoding="UTF-8" ?>
<!DOCTYPE svg PUBLIC "-//W3C//DTD SVG 1.1//EN" "http://www.w3.org/Graphics/SVG/1.1/DTD/svg11.dtd">
<svg width="624pt" height="226pt" viewBox="0 0 624 226" version="1.1" xmlns="http://www.w3.org/2000/svg">
<g id="#131a2cff">
</g>
<g id="#6366f1ff">
<path fill="#6366f1" opacity="1.00" d=" M 200.01 147.99 C 208.00 132.00 215.99 116.01 224.00 100.02 C 232.01 116.01 240.00 132.00 247.99 147.99 C 244.00 148.01 240.00 148.00 236.01 148.00 C 231.99 140.01 228.02 132.00 224.00 124.02 C 219.98 132.00 216.01 140.01 211.99 148.00 C 208.00 148.00 204.00 148.00 200.01 147.99 M 221.41 111.33 C 218.85 112.96 218.86 117.05 221.42 118.67 C 224.15 120.95 228.71 118.43 228.52 114.97 C 228.66 111.53 224.12 109.06 221.41 111.33 Z" />
</g>
<g id="#ffffffff">
<path fill="#ffffff" opacity="1.00" d=" M 282.77 107.26 C 286.43 107.14 290.11 107.13 293.78 107.26 C 296.35 117.88 299.37 128.39 301.95 139.01 C 299.68 139.01 297.40 138.99 295.14 138.84 C 294.65 136.55 294.12 134.26 293.51 132.00 C 289.97 132.00 286.43 132.00 282.88 132.01 C 282.43 134.34 281.84 136.64 281.32 138.95 C 279.01 139.00 276.69 138.99 274.38 138.87 C 277.44 128.41 280.06 117.82 282.77 107.26 M 288.10 110.68 C 287.17 115.99 285.69 121.19 284.34 126.41 C 286.89 126.36 289.44 126.36 292.00 126.37 C 290.91 121.09 289.54 115.87 288.10 110.68 Z" />
<path fill="#ffffff" opacity="1.00" d=" M 352.80 108.71 C 355.57 106.42 359.44 107.39 362.74 107.18 C 362.73 108.90 362.73 110.62 362.73 112.34 C 361.04 112.36 359.36 112.39 357.68 112.43 C 357.65 113.42 357.59 115.40 357.55 116.39 C 359.53 116.37 361.52 116.37 363.51 116.38 C 363.51 118.13 363.51 119.87 363.51 121.62 C 361.53 121.62 359.55 121.62 357.58 121.61 C 357.64 127.40 357.59 133.20 357.62 138.99 C 355.54 139.00 353.46 139.00 351.38 139.00 C 351.40 133.20 351.35 127.41 351.42 121.62 C 349.48 121.62 347.56 121.62 345.63 121.60 C 345.63 119.86 345.63 118.13 345.64 116.39 C 347.55 116.38 349.48 116.37 351.40 116.39 C 351.53 113.81 350.74 110.75 352.80 108.71 Z" />
<path fill="#ffffff" opacity="1.00" d=" M 391.72 107.26 C 393.90 107.20 396.08 107.20 398.27 107.24 C 398.26 117.80 398.24 128.36 398.28 138.92 C 396.09 138.98 393.90 138.98 391.72 138.92 C 391.76 128.37 391.75 117.82 391.72 107.26 Z" />
<path fill="#ffffff" opacity="1.00" d=" M 401.55 110.61 C 402.10 108.39 403.60 106.94 405.85 106.43 C 407.50 107.11 410.01 107.71 409.74 110.05 C 410.63 115.24 402.07 115.39 401.55 110.61 Z" />
<path fill="#ffffff" opacity="1.00" d=" M 221.41 111.33 C 224.12 109.06 228.66 111.53 228.52 114.97 C 228.71 118.43 224.15 120.95 221.42 118.67 C 218.86 117.05 218.85 112.96 221.41 111.33 Z" />
<path fill="#ffffff" opacity="1.00" d=" M 321.51 119.60 C 325.25 114.89 333.41 114.48 337.19 119.38 C 337.19 118.62 337.18 117.10 337.17 116.34 C 339.19 116.36 341.23 116.39 343.26 116.43 C 343.23 125.31 343.30 134.19 343.24 143.06 C 343.32 145.38 341.53 147.95 339.06 147.95 C 333.58 148.09 328.10 147.99 322.62 147.95 C 322.62 146.32 322.62 144.68 322.62 143.05 C 327.31 142.95 332.00 143.05 336.69 142.95 C 336.72 140.59 336.73 138.23 336.82 135.88 C 332.44 141.81 321.67 139.34 319.70 132.34 C 318.84 128.13 318.61 123.13 321.51 119.60 M 330.23 121.16 C 324.41 121.90 323.54 131.04 328.57 133.40 C 331.69 135.23 336.21 133.14 336.84 129.57 C 338.40 125.44 334.81 120.15 330.23 121.16 Z" />
<path fill="#ffffff" opacity="1.00" d=" M 371.52 116.63 C 376.24 115.25 382.12 115.73 385.58 119.61 C 390.56 125.45 388.93 136.59 381.04 139.01 C 374.40 141.77 364.85 137.92 364.39 130.11 C 363.29 124.63 365.99 118.41 371.52 116.63 M 374.43 121.55 C 370.26 122.69 369.62 128.31 371.34 131.64 C 373.45 135.96 381.11 135.00 381.76 130.07 C 383.46 125.63 379.49 119.62 374.43 121.55 Z" />
<path fill="#ffffff" opacity="1.00" d=" M 402.63 116.40 C 404.70 116.38 406.76 116.36 408.83 116.36 C 408.84 123.91 408.83 131.46 408.84 139.01 C 406.76 139.00 404.69 138.98 402.62 138.95 C 402.65 131.44 402.63 123.92 402.63 116.40 Z" />
<path fill="#ffffff" opacity="1.00" d=" M 420.41 116.44 C 424.05 115.64 428.16 115.64 431.45 117.61 C 439.03 122.06 438.41 135.65 429.96 138.99 C 425.21 140.79 419.26 139.96 415.50 136.34 C 410.04 130.36 412.02 118.59 420.41 116.44 M 422.47 121.68 C 416.42 123.85 418.06 135.24 425.02 134.37 C 429.92 134.35 431.62 128.19 429.72 124.42 C 428.65 121.65 425.08 120.56 422.47 121.68 Z" />
<path fill="#ffffff" opacity="1.00" d=" M 304.26 139.00 C 304.27 131.45 304.24 123.90 304.28 116.35 C 306.30 116.36 308.32 116.38 310.35 116.40 C 310.35 117.14 310.36 118.61 310.36 119.35 C 311.68 116.15 315.36 116.22 318.26 116.39 C 318.25 118.15 318.26 119.92 318.27 121.68 C 315.59 121.84 311.82 121.33 310.65 124.48 C 310.29 129.30 310.61 134.15 310.52 138.98 C 308.43 138.99 306.35 139.00 304.26 139.00 Z" />
</g>
</svg>
